<?xml version="1.0" encoding="UTF-8"?>
<svg id="Layer_1" data-name="Layer 1" xmlns="http://www.w3.org/2000/svg" xmlns:xlink="http://www.w3.org/1999/xlink" viewBox="0 0 246.27 202.55">
  <defs>
    <style>
      .cls-1 {
        fill: url(#linear-gradient-2);
      }

      .cls-2 {
        fill: url(#linear-gradient-4);
      }

      .cls-3 {
        fill: url(#linear-gradient-3);
      }

      .cls-4 {
        fill: url(#linear-gradient);
      }
    </style>
    <linearGradient id="linear-gradient" x1="15.92" y1="147.35" x2="246.27" y2="147.35" gradientUnits="userSpaceOnUse">
      <stop offset="0" stop-color="#e25858"/>
      <stop offset="1" stop-color="#ff6b6b"/>
    </linearGradient>
    <linearGradient id="linear-gradient-2" x1="0" y1="51.38" x2="216.55" y2="51.38" xlink:href="#linear-gradient"/>
    <linearGradient id="linear-gradient-3" x1="83.86" y1="128.11" y2="128.11" xlink:href="#linear-gradient"/>
    <linearGradient id="linear-gradient-4" x1="48.78" y1="117.97" x2="89.89" y2="117.97" xlink:href="#linear-gradient"/>
  </defs>
  <path class="cls-4" d="M15.92,104.89l23.35-12.73c1.47,8.81-.48,17.25-.04,26.05.66,13.12,5.39,20.72,15.97,28.09h-15.92v9.55h206.99v46.71h-23.35v-23.35H40.34v23.35H15.92v-97.66Z"/>
  <polygon class="cls-1" points="193.2 33.77 193.2 15.72 216.55 15.72 216.55 74.11 131.16 26.33 0 102.77 0 76.76 130.3 0 136.3 .98 193.2 33.77"/>
  <path class="cls-3" d="M246.27,146.29H83.86c11.05-8.04,16.8-19.43,16.07-33.29l3.52-1.79c34.55,3.52,78.67-4.73,112.09.53,16.93,2.67,29.8,17.76,30.73,34.55Z"/>
  <path class="cls-2" d="M68.63,96.8c26.99-.82,27.82,38.36,5.08,41.99-30.46,4.87-34.02-41.12-5.08-41.99Z"/>
</svg>