<?xml version="1.0" encoding="UTF-8"?>
<svg id="Layer_1" data-name="Layer 1" xmlns="http://www.w3.org/2000/svg" viewBox="0 0 778 202.55">
  <path d="M15.92,104.89l23.35-12.73c1.47,8.81-.48,17.25-.04,26.05.66,13.12,5.39,20.72,15.97,28.09h-15.92v9.55h206.99v46.71h-23.35v-23.35H40.34v23.35H15.92v-97.66Z"/>
  <polygon points="193.2 33.77 193.2 15.72 216.55 15.72 216.55 74.11 131.16 26.33 0 102.77 0 76.76 130.3 0 136.3 .98 193.2 33.77"/>
  <path d="M299.88,62.43l33.98,57.33,2.47-1.78,32.55-55.55h18.58v95.54h-20.17v-58.38l-26.8,46.44c-2.01,1.95-10.42,2.39-11.89-.84l-27.12-44.53v57.32h-20.17V62.43h18.58Z"/>
  <path d="M744.65,62.43c12.18,1.12,26.62,6.92,28.13,20.7,1.34,12.21-2.64,18.62-11.68,26,22.24,5.84,22.35,37.01,1.37,45.43-2.19.88-11.73,3.41-13.58,3.41h-55.73V62.43c16.61,1.12,35.1-1.5,51.48,0ZM741.47,79.42c-8.16-1.15-18.63.84-27.07,0v22.29h28.13c.83,0,6.09-2.99,6.92-3.99,6.13-7.34,1.32-17-7.98-18.3ZM714.4,140.98c9.9-.6,21.67,1.1,31.31,0,10.66-1.21,15.62-13.7,7.29-20.03-.95-.73-7.54-3.32-8.35-3.32h-30.25v23.35Z"/>
  <path d="M536.59,62.43c2.08.18,6.83,1.06,9.08,1.53,24.81,5.21,28.82,30.47,9.49,45.16,18.07,4.32,22,29.34,8.5,40.89-3.73,3.19-15.07,7.95-19.65,7.95h-56.79V62.43c16,.99,33.54-1.34,49.36,0ZM508.46,101.71h28.13c1.06,0,6.49-3.97,7.39-5.35,2.86-4.42,2.29-9.8-1.5-13.28-1.06-.97-5.99-3.66-6.95-3.66h-27.07v22.29ZM508.46,142.04h27.07c2.1,0,9.28-2.28,11.1-3.76,8.78-7.12,1.46-20.66-7.92-20.66h-30.25v24.41Z"/>
  <polygon points="651.77 120.81 651.77 62.43 671.94 62.43 671.94 157.97 655.48 157.97 607.18 99.58 607.18 157.97 587.55 157.97 585.95 156.37 585.95 62.43 603.47 62.43 648.78 119.03 651.77 120.81"/>
  <path d="M246.27,146.29H83.86c11.05-8.04,16.8-19.43,16.07-33.29l3.52-1.79c34.55,3.52,78.67-4.73,112.09.53,16.93,2.67,29.8,17.76,30.73,34.55Z"/>
  <path d="M418.24,85.78l19.12,48.83c1.33.99,6.31-11.4,6.87-12.75,4.93-11.77,9.16-24.01,13.28-36.08h20.17c-1.53,6.48-4.4,12.92-6.93,19.07-5.91,14.36-23.7,61.85-32.35,70.61-10.36,10.49-29.68,10.15-40.22.02l7.85-13.24c7.07,6.58,20.06,6.45,21.76-4.73l-30.77-71.73h21.23Z"/>
  <path d="M68.63,96.8c26.99-.82,27.82,38.36,5.08,41.99-30.46,4.87-34.02-41.12-5.08-41.99Z"/>
</svg>