<?xml version="1.0" encoding="UTF-8"?>
<svg id="Layer_1" data-name="Layer 1" xmlns="http://www.w3.org/2000/svg" viewBox="0 0 246.27 202.55">
  <path d="M15.92,104.89l23.35-12.73c1.47,8.81-.48,17.25-.04,26.05.66,13.12,5.39,20.72,15.97,28.09h-15.92v9.55h206.99v46.71h-23.35v-23.35H40.34v23.35H15.92v-97.66Z"/>
  <polygon points="193.2 33.77 193.2 15.72 216.55 15.72 216.55 74.11 131.16 26.33 0 102.77 0 76.76 130.3 0 136.3 .98 193.2 33.77"/>
  <path d="M246.27,146.29H83.86c11.05-8.04,16.8-19.43,16.07-33.29l3.52-1.79c34.55,3.52,78.67-4.73,112.09.53,16.93,2.67,29.8,17.76,30.73,34.55Z"/>
  <path d="M68.63,96.8c26.99-.82,27.82,38.36,5.08,41.99-30.46,4.87-34.02-41.12-5.08-41.99Z"/>
</svg>